<?xml version="1.0" encoding="UTF-8" standalone="no"?>
<svg
   version="1.0"
   width="1509"
   height="576"
   viewBox="0 0 1131.75 432"
   preserveAspectRatio="xMidYMid"
   id="svg2"
   sodipodi:docname="fish.svg"
   inkscape:version="1.4.3 (0d15f75, 2025-12-25)"
   xmlns:inkscape="http://www.inkscape.org/namespaces/inkscape"
   xmlns:sodipodi="http://sodipodi.sourceforge.net/DTD/sodipodi-0.dtd"
   xmlns="http://www.w3.org/2000/svg"
   xmlns:svg="http://www.w3.org/2000/svg">
  <defs
     id="defs2" />
  <sodipodi:namedview
     id="namedview2"
     pagecolor="#ffffff"
     bordercolor="#000000"
     borderopacity="0.25"
     inkscape:showpageshadow="2"
     inkscape:pageopacity="0.0"
     inkscape:pagecheckerboard="0"
     inkscape:deskcolor="#d1d1d1"
     inkscape:document-units="pt"
     inkscape:zoom="0.4375"
     inkscape:cx="1005.7143"
     inkscape:cy="683.42857"
     inkscape:window-width="1920"
     inkscape:window-height="955"
     inkscape:window-x="2952"
     inkscape:window-y="30"
     inkscape:window-maximized="0"
     inkscape:current-layer="svg2" />
  <g
     id="g3"
     transform="translate(0,-3.42857)">
    <g
       transform="matrix(0.1,0,0,-0.1,-189.48939,782.25809)"
       fill="#ffffff"
       stroke="none"
       id="g2">
      <path
         d="m 1895,7780 c -3,-6 58,-77 137,-158 463,-478 770,-895 1307,-1777 105,-173 106,-181 39,-312 -108,-211 -486,-813 -721,-1148 -159,-225 -338,-453 -522,-665 -218,-249 -226,-284 -49,-225 141,47 347,164 554,314 337,244 612,479 1028,881 547,528 649,608 832,646 85,17 149,13 247,-17 75,-24 141,-54 528,-244 924,-454 1393,-644 2050,-833 621,-179 1312,-296 1955,-332 923,-51 1934,105 2665,412 275,115 607,294 807,434 193,136 404,329 443,404 21,40 16,74 -11,78 -11,2 -96,-27 -188,-63 -92,-37 -170,-64 -173,-61 -3,2 33,24 78,47 114,57 245,145 276,186 21,28 25,41 21,81 -6,66 -47,123 -182,257 -369,366 -1028,772 -1651,1018 -536,212 -1089,331 -1750,378 -262,19 -868,16 -1120,-5 -1049,-87 -1952,-344 -3125,-888 -252,-118 -324,-149 -427,-187 -222,-82 -433,-82 -596,0 -134,68 -181,107 -547,458 -675,648 -1020,931 -1386,1138 -217,123 -496,221 -519,183 z m 825,-657 c 228,-176 1342,-1155 1270,-1117 -44,23 -319,251 -505,419 -49,45 -268,237 -487,428 -218,190 -400,352 -404,359 -9,15 -18,21 126,-89 z m 510,-733 c 144,-103 604,-452 630,-478 28,-28 -64,29 -185,116 -133,96 -521,398 -532,415 -8,13 5,5 87,-53 z m 7833,-187 c -98,-156 -152,-283 -189,-443 -21,-92 -30,-367 -15,-471 41,-279 160,-527 351,-732 40,-42 69,-77 65,-77 -15,0 -145,112 -213,184 -119,126 -187,241 -240,406 -40,127 -55,230 -55,375 2,248 68,469 198,666 40,59 140,179 150,179 2,0 -21,-39 -52,-87 z m 1005,-198 c 81,-19 126,-43 188,-98 89,-80 138,-220 115,-328 -27,-123 -128,-246 -241,-292 -44,-17 -74,-22 -150,-22 -86,0 -102,3 -162,32 -116,55 -197,162 -218,287 -30,182 99,369 290,420 71,19 101,19 178,1 z M 3578,5881 c 120,-48 323,-143 318,-149 -2,-2 -64,22 -138,53 -137,57 -299,134 -286,135 4,0 52,-18 106,-39 z m 301,-335 c -7,-6 -342,-115 -374,-121 -26,-5 -27,-5 -12,5 48,30 412,140 386,116 z m 1,-160 c 0,-5 -435,-341 -540,-417 -148,-108 -247,-173 -209,-138 104,99 400,325 609,467 136,93 140,95 140,88 z m 5761,-106 c 266,-15 664,-67 764,-100 32,-11 -12,-9 -230,11 -313,27 -461,39 -680,54 -132,8 -278,19 -325,23 l -85,7 80,6 c 139,10 286,9 476,-1 z M 3670,4989 c -482,-474 -708,-684 -963,-895 -61,-51 -114,-90 -117,-88 -3,3 2,11 11,17 46,34 763,701 959,893 167,163 376,354 387,354 5,-1 -120,-127 -277,-281 z m 6667,12 c 22,-13 -340,-14 -698,-3 -366,11 -201,21 278,17 250,-3 409,-8 420,-14 z m 1,-196 c -14,-15 -658,-78 -658,-65 0,8 213,37 365,50 225,19 301,23 293,15 z"
         id="path1" />
      <path
         d="m 11910,5891 c -104,-32 -167,-112 -177,-222 -14,-153 81,-273 227,-286 83,-8 141,11 200,64 142,127 92,376 -89,438 -47,16 -119,18 -161,6 z"
         id="path2" />
    </g>
  </g>
</svg>
